<?xml version="1.0" standalone="yes"?>
<svg xmlns="http://www.w3.org/2000/svg" width="200" height="200">
<path style="fill:#ffffff; stroke:none;" d="M0 0L0 200L200 200L200 0L0 0z"/>
<path style="fill:#ebc5a7; stroke:none;" d="M98 60L97 75L98 75L98 60z"/>
<path style="fill:#e68c1e; stroke:none;" d="M99 60L98 76C102.547 73.0522 102.04 64.0123 99 60z"/>
<path style="fill:#ebc5a7; stroke:none;" d="M100 60L101 61L100 60M101 62L101 75L102 75L101 62M72 71L72 72L83 81L72 71M116 83C121.92 83.8363 125.837 78.4902 129 74L117 83L129 73C123.756 70.1757 118 78.7114 116 83z"/>
<path style="fill:#e68c1e; stroke:none;" d="M71 72C73.3852 77.1148 77.4925 81.4541 83 83C80.6148 77.8852 76.5075 73.5459 71 72M117 83L129 73C123.359 72.916 119.258 78.1576 117 83z"/>
<path style="fill:#ebc5a7; stroke:none;" d="M71 74L72 75L71 74M72 75L73 76L72 75M100 75L101 76L100 75M73 76L74 77L73 76M74 77L75 78L74 77M75 78L76 79L75 78M76 79L77 80L76 79M77 80L78 81L77 80M78 81L79 82L78 81M96 81L97 82L96 81z"/>
<path style="fill:#abc5d1; stroke:none;" d="M97 81L97 82L104 82L97 81z"/>
<path style="fill:#ebc5a7; stroke:none;" d="M104 81L105 82L104 81M79 82L80 83L79 82z"/>
<path style="fill:#abc5d1; stroke:none;" d="M93.6667 82.3333L94.3333 82.6667L93.6667 82.3333z"/>
<path style="fill:#29a8cc; stroke:none;" d="M95 82.5579C73.6419 88.1614 84.9258 108.667 89.9252 121C92.7799 128.043 90.0232 141.889 102.996 138.681C111.863 136.489 108.555 127.217 111.075 121C113.32 115.461 117.607 111.06 118.671 105C121.179 90.7205 109.473 78.7607 95 82.5579z"/>
<path style="fill:#abc5d1; stroke:none;" d="M106.667 82.3333L107.333 82.6667L106.667 82.3333z"/>
<path style="fill:#ebc5a7; stroke:none;" d="M80 83L80 84L83 84L80 83z"/>
<path style="fill:#abc5d1; stroke:none;" d="M91 83L92 84L91 83M109 83L110 84L109 83M90 84L91 85L90 84M100 84L101 85L100 84M110 84L111 85L110 84M88 85L89 86L88 85M95.6667 85.3333L96.3333 85.6667L95.6667 85.3333z"/>
<path style="fill:#ebc5a7; stroke:none;" d="M97 85L98 86L97 85z"/>
<path style="fill:#ffffff; stroke:none;" d="M95 119L93 104L95 104L99 119L102 119L106 104L108 104L106 119C119.723 111.217 119.093 84.5886 100 85.2639C81.6539 85.9127 81.5946 111.398 95 119z"/>
<path style="fill:#ebc5a7; stroke:none;" d="M103 85L104 86L103 85z"/>
<path style="fill:#abc5d1; stroke:none;" d="M104.667 85.3333L105.333 85.6667L104.667 85.3333M112 85L113 86L112 85M87 86L88 87L87 86M93 86L94 87L93 86z"/>
<path style="fill:#ebc5a7; stroke:none;" d="M98 87L98 88L103 87L98 87z"/>
<path style="fill:#abc5d1; stroke:none;" d="M107 86L108 87L107 86M113 86L114 87L113 86M86 87L87 88L86 87M91 87L92 88L91 87z"/>
<path style="fill:#e68c1e; stroke:none;" d="M98 88L98 89L113 101C112.276 92.7719 106.971 85.5593 98 88z"/>
<path style="fill:#ebc5a7; stroke:none;" d="M104.667 87.3333L105.333 87.6667L104.667 87.3333z"/>
<path style="fill:#abc5d1; stroke:none;" d="M109 87L110 88L109 87M114 87L115 88L114 87M85 88L86 89L85 88M90 88L91 89L90 88z"/>
<path style="fill:#ebc5a7; stroke:none;" d="M106 88L107 89L106 88z"/>
<path style="fill:#abc5d1; stroke:none;" d="M110 88L111 89L110 88M115 88L116 89L115 88z"/>
<path style="fill:#ebc5a7; stroke:none;" d="M84 89L85 90L84 89z"/>
<path style="fill:#abc5d1; stroke:none;" d="M89 89L90 90L89 89z"/>
<path style="fill:#ebc5a7; stroke:none;" d="M98 89L99 90L98 89M108 89L109 90L108 89z"/>
<path style="fill:#abc5d1; stroke:none;" d="M111 89L112 90L111 89z"/>
<path style="fill:#ebc5a7; stroke:none;" d="M116 89L117 90L116 89z"/>
<path style="fill:#abc5d1; stroke:none;" d="M84 90L85 91L84 90M88 90L89 91L88 90z"/>
<path style="fill:#ebc5a7; stroke:none;" d="M101.667 90.3333L102.333 90.6667L101.667 90.3333M109 90L110 91L109 90z"/>
<path style="fill:#abc5d1; stroke:none;" d="M112 90L113 91L112 90M116 90L117 91L116 90M83 91L84 92L83 91M87 91L88 92L87 91z"/>
<path style="fill:#ebc5a7; stroke:none;" d="M104 91L105 92L104 91M110 91L111 92L110 91z"/>
<path style="fill:#abc5d1; stroke:none;" d="M113 91L114 92L113 91M117 91L118 92L117 91z"/>
<path style="fill:#ebc5a7; stroke:none;" d="M106 92L107 93L106 92z"/>
<path style="fill:#abc5d1; stroke:none;" d="M82.3333 93.6667L82.6667 94.3333L82.3333 93.6667M86 93L87 94L86 93z"/>
<path style="fill:#ebc5a7; stroke:none;" d="M111 93L112 94L111 93z"/>
<path style="fill:#abc5d1; stroke:none;" d="M114 93L115 94L114 93M118.333 93.6667L118.667 94.3333L118.333 93.6667M85.3333 95.6667L85.6667 96.3333L85.3333 95.6667z"/>
<path style="fill:#ebc5a7; stroke:none;" d="M108 95L109 96L108 95M112.333 95.6667L112.667 96.3333L112.333 95.6667z"/>
<path style="fill:#abc5d1; stroke:none;" d="M115.333 95.6667L115.667 96.3333L115.333 95.6667M81 96L81 105L82 105L81 96M119 96L119 105L120 105L119 96z"/>
<path style="fill:#ebc5a7; stroke:none;" d="M60 98L62 102L62 101L60 98z"/>
<path style="fill:#e68c1e; stroke:none;" d="M60 99L60 101L75 101L75 99L60 99z"/>
<path style="fill:#ebc5a7; stroke:none;" d="M74 98L75 99L74 98M109 98L109 101L110 101L109 98M125 98L125 102L126 102L125 98z"/>
<path style="fill:#e68c1e; stroke:none;" d="M125 99L125 101L140 101L140 99L125 99z"/>
<path style="fill:#ebc5a7; stroke:none;" d="M139 98L140 99L139 98M75.3333 99.6667L75.6667 100.333L75.3333 99.6667z"/>
<path style="fill:#abc5d1; stroke:none;" d="M84 99L84 102L85 102L84 99M116 99L116 102L117 102L116 99z"/>
<path style="fill:#ebc5a7; stroke:none;" d="M140.333 99.6667L140.667 100.333L140.333 99.6667M74 101L75 102L74 101M110.667 101.333L111.333 101.667L110.667 101.333M138.667 101.333L139.333 101.667L138.667 101.333z"/>
<path style="fill:#abc5d1; stroke:none;" d="M85.3333 104.667L85.6667 105.333L85.3333 104.667M93.6667 104.333L94.3333 104.667L93.6667 104.333M106.667 104.333L107.333 104.667L106.667 104.333M115.333 104.667L115.667 105.333L115.333 104.667M95.3333 105.667L95.6667 106.333L95.3333 105.667M105.333 105.667L105.667 106.333L105.333 105.667M82.3333 106.667L82.6667 107.333L82.3333 106.667M118.333 106.667L118.667 107.333L118.333 106.667M86 107L87 108L86 107M92.3333 107.667L92.6667 108.333L92.3333 107.667M108.333 107.667L108.667 108.333L108.333 107.667M114 107L115 108L114 107M96.3333 108.667L96.6667 109.333L96.3333 108.667M104.333 108.667L104.667 109.333L104.333 108.667M83 109L84 110L83 109M87 109L88 110L87 109M113 109L114 110L113 109M117 109L118 110L117 109M93 110L94 111L93 110z"/>
<path style="fill:#ebc5a7; stroke:none;" d="M97 110L98 111L97 110M103 110L104 111L103 110z"/>
<path style="fill:#abc5d1; stroke:none;" d="M107 110L108 111L107 110M84 111L85 112L84 111M88 111L89 112L88 111z"/>
<path style="fill:#ebc5a7; stroke:none;" d="M93 111L94 112L93 111z"/>
<path style="fill:#abc5d1; stroke:none;" d="M97 111L98 112L97 111M103 111L104 112L103 111z"/>
<path style="fill:#ebc5a7; stroke:none;" d="M107 111L108 112L107 111z"/>
<path style="fill:#abc5d1; stroke:none;" d="M112 111L113 112L112 111M116 111L117 112L116 111z"/>
<path style="fill:#ebc5a7; stroke:none;" d="M89 112L90 113L89 112M111 112L112 113L111 112z"/>
<path style="fill:#abc5d1; stroke:none;" d="M85 113L86 114L85 113M89 113L90 114L89 113M94 113L95 114L94 113z"/>
<path style="fill:#ebc5a7; stroke:none;" d="M98 113L99 114L98 113M102 113L103 114L102 113z"/>
<path style="fill:#abc5d1; stroke:none;" d="M106 113L107 114L106 113M111 113L112 114L111 113M115 113L116 114L115 113M86 114L87 115L86 114M90 114L91 115L90 114z"/>
<path style="fill:#ebc5a7; stroke:none;" d="M94 114L95 115L94 114z"/>
<path style="fill:#abc5d1; stroke:none;" d="M98 114L99 115L98 114M102 114L103 115L102 114z"/>
<path style="fill:#ebc5a7; stroke:none;" d="M106 114L107 115L106 114z"/>
<path style="fill:#abc5d1; stroke:none;" d="M110 114L111 115L110 114M114 114L115 115L114 114z"/>
<path style="fill:#ebc5a7; stroke:none;" d="M86 115L87 116L86 115z"/>
<path style="fill:#abc5d1; stroke:none;" d="M95 115L93 119L93 120C96.0124 119.354 96.498 117.613 95 115M105 115C105.064 117.993 104.946 119.346 108 120L108 119L105 115z"/>
<path style="fill:#ebc5a7; stroke:none;" d="M114 115L115 116L114 115z"/>
<path style="fill:#abc5d1; stroke:none;" d="M87 116L88 117L87 116M91 116L92 117L91 116M109 116L110 117L109 116M113 116L114 117L113 116z"/>
<path style="fill:#ebc5a7; stroke:none;" d="M80 117L71 127L80 117z"/>
<path style="fill:#e68c1e; stroke:none;" d="M81 117L71 129C75.5627 127.719 83.8527 122.297 81 117z"/>
<path style="fill:#ebc5a7; stroke:none;" d="M82 117L83 118L82 117M117 117C116.914 122.76 123.24 129.086 129 129L129 128C123.307 126.7 119.741 121.943 117 117z"/>
<path style="fill:#e68c1e; stroke:none;" d="M118 117C117.917 122.563 123.437 128.083 129 128L118 117z"/>
<path style="fill:#ebc5a7; stroke:none;" d="M119 117L120 118L119 117z"/>
<path style="fill:#abc5d1; stroke:none;" d="M88 118L89 119L88 118M92 118L93 119L92 118M108 118L109 119L108 118M112 118L113 119L112 118z"/>
<path style="fill:#ebc5a7; stroke:none;" d="M120 118L121 119L120 118z"/>
<path style="fill:#abc5d1; stroke:none;" d="M89.3333 119.667L89.6667 120.333L89.3333 119.667M99 119L99 120L102 120L99 119M111.333 119.667L111.667 120.333L111.333 119.667z"/>
<path style="fill:#ebc5a7; stroke:none;" d="M121 119L122 120L121 119M82 120L83 121L82 120M122 120L123 121L122 120M81 121L82 122L81 121z"/>
<path style="fill:#abc5d1; stroke:none;" d="M90 121L90 132L91 132L90 121M110 121L110 132L111 132L110 121z"/>
<path style="fill:#ebc5a7; stroke:none;" d="M123 121L124 122L123 121M80 122L81 123L80 122z"/>
<path style="fill:#abc5d1; stroke:none;" d="M94 124L107 123L105 125L105 126L108 125L108 123C103.954 121.804 97.0267 120.536 94 124z"/>
<path style="fill:#ebc5a7; stroke:none;" d="M124 122L125 123L124 122M79 123L80 124L79 123M95 123L96 124L95 123z"/>
<path style="fill:#ffffff; stroke:none;" d="M96 123L96 124L107 125L107 123L96 123z"/>
<path style="fill:#ebc5a7; stroke:none;" d="M125 123L126 124L125 123M78 124L79 125L78 124z"/>
<path style="fill:#abc5d1; stroke:none;" d="M98 124L98 125L102 125L98 124z"/>
<path style="fill:#ebc5a7; stroke:none;" d="M102 124L103 125L102 124M126 124L127 125L126 124M77 125L78 126L77 125M127 125L128 126L127 125M76 126L77 127L76 126M128 126L129 127L128 126M75 127L76 128L75 127z"/>
<path style="fill:#abc5d1; stroke:none;" d="M93 127L94 130L95 130L99 128L93 127z"/>
<path style="fill:#ebc5a7; stroke:none;" d="M74 128L75 129L74 128z"/>
<path style="fill:#ffffff; stroke:none;" d="M94 128L94 129L107 131L107 129L94 128z"/>
<path style="fill:#abc5d1; stroke:none;" d="M101 128L101 129L106 129L101 128z"/>
<path style="fill:#ebc5a7; stroke:none;" d="M72.6667 129.333L73.3333 129.667L72.6667 129.333z"/>
<path style="fill:#abc5d1; stroke:none;" d="M107 129L108 130L107 129M98 130L98 131L102 131L98 130z"/>
<path style="fill:#ebc5a7; stroke:none;" d="M102 130L103 131L102 130z"/>
<path style="fill:#abc5d1; stroke:none;" d="M104 131L104 132L107 132L104 131z"/>
<path style="fill:#ebc5a7; stroke:none;" d="M90 132L91 133L90 132M110 132L111 133L110 132z"/>
<path style="fill:#abc5d1; stroke:none;" d="M95 133L95 134L99 134L95 133M109.333 133.667L109.667 134.333L109.333 133.667M91 134L92 135L91 134z"/>
<path style="fill:#ebc5a7; stroke:none;" d="M96 134L97 135L96 134z"/>
<path style="fill:#ffffff; stroke:none;" d="M97 134L97 135L103 136L97 134z"/>
<path style="fill:#abc5d1; stroke:none;" d="M101 134L101 135L105 135L101 134M92 135L93 136L92 135M97 135L98 136L97 135M108 135L109 136L108 135M93 136L94 137L93 136M99 136L99 137L102 137L99 136M107 136L108 137L107 136M94 137L95 138L94 137M106 137L107 138L106 137M95 138L96 139L95 138M105 138L106 139L105 138M97 139L97 140L104 140L97 139z"/>
</svg>
