<?xml version="1.0" standalone="yes"?>
<svg xmlns="http://www.w3.org/2000/svg" width="200" height="200">
<path style="fill:#fefefe; stroke:none;" d="M0 0L0 200L200 200L200 0L0 0z"/>
<path style="fill:#beb1a6; stroke:none;" d="M47 59L47 60L50 59L50 74L51 74L50 58L47 59z"/>
<path style="fill:#e68b1c; stroke:none;" d="M48 59C46.6225 63.6603 45.446 71.0476 50 74L50 59L48 59z"/>
<path style="fill:#beb1a6; stroke:none;" d="M76 69L77 70L76 69M153 72L154 72L157 71L153 72M20 70L30 82L20 70z"/>
<path style="fill:#e68b1c; stroke:none;" d="M21 70L31 82C31.084 76.3593 25.8424 72.2582 21 70z"/>
<path style="fill:#beb1a6; stroke:none;" d="M23 70L24 71L23 70z"/>
<path style="fill:#e68b1c; stroke:none;" d="M66 81L67 82C72.0529 79.3787 76.4307 75.5909 78 70C72.4091 71.5693 68.6213 75.9471 66 81z"/>
<path style="fill:#374042; stroke:none;" d="M154 70L148 95L152 88L157 95C154.476 87.1714 156.796 85.0169 160 78L154 84L153 84L156 70L154 70z"/>
<path style="fill:#beb1a6; stroke:none;" d="M24 71L25 72L24 71M78 71L79 72L78 71z"/>
<path style="fill:#374042; stroke:none;" d="M126 71L128 73L123 95L127 85L135 84L135 83L128 83L130 73L139 72L126 71z"/>
<path style="fill:#beb1a6; stroke:none;" d="M25 72L26 73L25 72M138 72L139 73L138 72M26 73L27 74L26 73M47 73L48 74L47 73M126 73L128 75L128 73L126 73z"/>
<path style="fill:#2ba6c8; stroke:none;" d="M130 73L131 74L130 73z"/>
<path style="fill:#beb1a6; stroke:none;" d="M131 73L131 74L138 74L131 73M155.333 73.6667L155.667 74.3333L155.333 73.6667M27 74L28 75L27 74M48 74L49 75L48 74M130 74L131 75L130 74M152.333 74.6667L152.667 75.3333L152.333 74.6667M28 75L29 76L28 75M29 76L30 77L29 76M30 77L31 78L30 77M126.333 77.6667L126.667 78.3333L126.333 77.6667M129.333 77.6667L129.667 78.3333L129.333 77.6667M154.333 77.6667L154.667 78.3333L154.333 77.6667M31 78L32 79L31 78M141 78L142 79L141 78z"/>
<path style="fill:#374042; stroke:none;" d="M147 90L144 92L147 78C141.164 78.6273 131.509 86.5719 137.029 93.3719C140.272 97.3675 145.465 93.0258 147 90z"/>
<path style="fill:#beb1a6; stroke:none;" d="M144.667 78.3333L145.333 78.6667L144.667 78.3333M147 78L148 79L147 78M151 78L152 79L151 78M157 78L158 79L157 78M160 78L161 79L160 78M165 78L166 79L165 78z"/>
<path style="fill:#374042; stroke:none;" d="M167 91L161 92C163.853 89.7792 167.698 87.5811 168.932 83.9645C170.331 79.8647 166.564 77.5656 163.418 80.4529C156.921 86.4161 161.499 100.98 167 91z"/>
<path style="fill:#beb1a6; stroke:none;" d="M168 78L169 79L168 78M32.3333 79.6667L32.6667 80.3333L32.3333 79.6667M47 79L47 80L53 80L47 79M66 79L67 80L66 79M139 79L140 80L139 79z"/>
<path style="fill:#2ba6c8; stroke:none;" d="M147 79L148 80L147 79M151 79L152 80L151 79z"/>
<path style="fill:#beb1a6; stroke:none;" d="M156 79L157 80L156 79M163 79L164 80L163 79M169 79L170 80L169 79M43.6667 80.3333L44.3333 80.6667L43.6667 80.3333z"/>
<path style="fill:#2ba6c8; stroke:none;" d="M45 80.5332C23.0204 85.8408 34.205 106.201 39.0062 119C41.5457 125.77 39.486 140.363 51.9992 137.387C61.357 135.162 58.4491 125.656 60.8179 119C63.0607 112.698 67.8356 107.911 68.6844 101C70.3158 87.7166 57.6177 77.4863 45 80.5332z"/>
<path style="fill:#beb1a6; stroke:none;" d="M55 80L56 81L55 80M140 83L145 82L140 83M147 80L148 81L147 80M31 81L32 82L31 81M41 81L42 82L41 81M58 81L59 82L58 81M66 81L67 82L66 81M68 81L69 82L68 81M125.333 81.6667L125.667 82.3333L125.333 81.6667M128 81L135 83L135 82L128 81M138 81L139 82L138 81z"/>
<path style="fill:#fefefe; stroke:none;" d="M138 92C142.167 89.6289 143.314 85.5771 144 81C139.633 83.3506 138.957 87.3804 138 92z"/>
<path style="fill:#beb1a6; stroke:none;" d="M153 81L153 84L155 83L155 82L153 81M158 81L159 82L158 81z"/>
<path style="fill:#fefefe; stroke:none;" d="M165 81L163 87L167 81L165 81z"/>
<path style="fill:#beb1a6; stroke:none;" d="M39 82L40 83L39 82M150 82L151 83L150 82M157 82L158 83L157 82M161 82L162 83L161 82M164 82L165 83L164 82M38 83L39 84L38 83M45 83L45 84L50 85L45 83z"/>
<path style="fill:#fefefe; stroke:none;" d="M49 83L49 84C56.5974 87.0289 62.9229 90.8217 62 100L60 100C57.1648 92.466 54.2213 90.2344 47 87L47 86L49 84C31.5667 84.9429 31.0531 109.082 44 117L42 102L44 102L49 117L51 117L56 102L57 102L55 117C63.5437 114.103 67.677 98.5174 63.142 91.0039C59.8829 85.6044 54.7776 84.1249 49 83z"/>
<path style="fill:#beb1a6; stroke:none;" d="M51 83L51 84L54 84L51 83M61 83L62 84L61 83M137 83L138 84L137 83M146 83L147 84L146 83M156 83L157 84L156 83M169.333 83.6667L169.667 84.3333L169.333 83.6667M37 84L38 85L37 84M43 84L44 85L43 84M56 84L57 85L56 84M62 84L63 85L62 84M134 84L135 85L134 84z"/>
<path style="fill:#2ba6c8; stroke:none;" d="M139 84L140 85L139 84z"/>
<path style="fill:#beb1a6; stroke:none;" d="M143 84L144 85L143 84z"/>
<path style="fill:#2ba6c8; stroke:none;" d="M155 84L156 85L155 84z"/>
<path style="fill:#beb1a6; stroke:none;" d="M160.333 84.6667L160.667 85.3333L160.333 84.6667M163 84L164 85L163 84M166 84L167 85L166 84M41 85L42 86L41 85z"/>
<path style="fill:#e68b1c; stroke:none;" d="M48 85L48 88C54.349 89.1507 57.8493 92.651 59 99L62 99C61.6007 90.4077 56.6142 85.4478 48 85z"/>
<path style="fill:#beb1a6; stroke:none;" d="M53 85L54 86L53 85M58 85L59 86L58 85M63 85L64 86L63 85M124.333 85.6667L124.667 86.3333L124.333 85.6667M127.333 85.6667L127.667 86.3333L127.333 85.6667M136.333 85.6667L136.667 86.3333L136.333 85.6667M139 85L140 86L139 85M149.333 85.6667L149.667 86.3333L149.333 85.6667M168 85L169 86L168 85M35 86L36 87L35 86M40 86L41 87L40 86M47 86L48 87L47 86M55 86L56 87L55 86M59 86L60 87L59 86M64 86L65 87L64 86M145.333 86.6667L145.667 87.3333L145.333 86.6667M154 86L155 87L154 86z"/>
<path style="fill:#2ba6c8; stroke:none;" d="M162 86L163 87L162 86z"/>
<path style="fill:#beb1a6; stroke:none;" d="M34 87L35 88L34 87M57 87L58 88L57 87M60 87L61 88L60 87M65 87L66 88L65 87M142 87L143 88L142 87z"/>
<path style="fill:#2ba6c8; stroke:none;" d="M154 87L155 88L154 87z"/>
<path style="fill:#beb1a6; stroke:none;" d="M159 87L159 90L160 90L159 87M162.667 87.3333L163.333 87.6667L162.667 87.3333M49 88L49 89L52 89L49 88M58 88L59 89L58 88M61 88L62 89L61 88M138.333 88.6667L138.667 89.3333L138.333 88.6667M152 88L151 90L153 90L152 88M165 88L166 89L165 88M37 89L38 90L37 89M53 89L54 90L53 89M59 89L60 90L59 89M62 89L63 90L62 89M66 89L67 90L66 89M123.333 89.6667L123.667 90.3333L123.333 89.6667M126.333 89.6667L126.667 90.3333L126.333 89.6667M135 89L135 93L136 93L135 89M141 89L142 90L141 89z"/>
<path style="fill:#2ba6c8; stroke:none;" d="M144 89L145 90L144 89z"/>
<path style="fill:#beb1a6; stroke:none;" d="M148 89L147 92L148 89M155 89L156 90L155 89M164 89L165 90L164 89M32 90L33 91L32 90M36 90L37 91L36 90M55 90L56 91L55 90M63 90L64 91L63 90M144 90L144 92L146 90L144 90z"/>
<path style="fill:#2ba6c8; stroke:none;" d="M155 90L156 91L155 90z"/>
<path style="fill:#beb1a6; stroke:none;" d="M162 90L163 91L162 90M56 91L57 92L56 91M67 91L68 92L67 91z"/>
<path style="fill:#2ba6c8; stroke:none;" d="M153 91L154 92L153 91z"/>
<path style="fill:#beb1a6; stroke:none;" d="M161 91L162 92L161 91M164 91L165 92L164 91M167 91L168 92L167 91M35 92L36 93L35 92M61.3333 92.6667L61.6667 93.3333L61.3333 92.6667M64.3333 92.6667L64.6667 93.3333L64.3333 92.6667z"/>
<path style="fill:#2ba6c8; stroke:none;" d="M146 92L147 93L146 92z"/>
<path style="fill:#fefefe; stroke:none;" d="M147 92L148 93L147 92z"/>
<path style="fill:#2ba6c8; stroke:none;" d="M150 92L151 93L150 92z"/>
<path style="fill:#beb1a6; stroke:none;" d="M153 92L154 93L153 92M156.333 92.6667L156.667 93.3333L156.333 92.6667M163 92L164 93L163 92M31.3333 93.6667L31.6667 94.3333L31.3333 93.6667M68 93L68 96L69 96L68 93M122.333 93.6667L122.667 94.3333L122.333 93.6667M125 93L126 94L125 93z"/>
<path style="fill:#2ba6c8; stroke:none;" d="M145 93L146 94L145 93z"/>
<path style="fill:#beb1a6; stroke:none;" d="M147.333 93.6667L147.667 94.3333L147.333 93.6667M150 93L151 94L150 93M159 93L160 94L159 93M136 94L137 95L136 94M141 94L142 95L141 94M144 94L145 95L144 94M34 95L34 103L35 103L34 95M58.3333 95.6667L58.6667 96.3333L58.3333 95.6667M65 95L65 102L66 102L65 95M123 95L124 96L123 95M138 95L139 96L138 95M142 95L143 96L142 95M148 95L149 96L148 95M155 95L156 96L155 95M161 95L161 96L164 96L161 95M9 97L9 98L25 98C20.8032 94.8205 13.8671 95.5614 9 97M62 96L62 99L63 99L62 96M75 96L75 97L89 99C89.7688 94.3364 78.1982 96 75 96z"/>
<path style="fill:#e68b1c; stroke:none;" d="M9 98L9 99L25 99C20.8032 95.8205 13.8671 96.5614 9 98z"/>
<path style="fill:#beb1a6; stroke:none;" d="M30 97L30 101L31 101L30 97z"/>
<path style="fill:#e68b1c; stroke:none;" d="M74 97C76.9588 101.564 84.0874 100 89 100L89 97L74 97z"/>
<path style="fill:#beb1a6; stroke:none;" d="M9 99L10 100L9 99M24 99L25 100L24 99M60.6667 99.3333L61.3333 99.6667L60.6667 99.3333M74 99L75 100L74 99M42.6667 102.333L43.3333 102.667L42.6667 102.333M56 102L57 103L56 102M68 102L68 105L69 105L68 102M31.3333 103.667L31.6667 104.333L31.3333 103.667M41 103L41 106L42 106L41 103M44 103L45 104L44 103M55 103L56 104L55 103M35.3333 104.667L35.6667 105.333L35.3333 104.667M54.3333 104.667L54.6667 105.333L54.3333 104.667M58 104L59 105L58 104M64 104L65 105L64 104M156 104L154 107L156 104z"/>
<path style="fill:#374042; stroke:none;" d="M149 114L148 130L157 115L157 106L162 106L156 130C161.762 125.98 163.451 111.72 164 105C155.368 104.011 154.756 108.958 149 114z"/>
<path style="fill:#beb1a6; stroke:none;" d="M160 104L161 105L160 104M162 104L162 105L164 107L165 107L162 104M45.3333 105.667L45.6667 106.333L45.3333 105.667M108 105L109 106L108 105z"/>
<path style="fill:#374042; stroke:none;" d="M109.011 105.971C101.158 107.62 95.3377 130.758 106 129.418C114.679 128.328 118.997 103.874 109.011 105.971z"/>
<path style="fill:#beb1a6; stroke:none;" d="M111 105L112 106L111 105M32 106L33 107L32 106M57.3333 106.667L57.6667 107.333L57.3333 106.667M63 106L64 107L63 106M67 106L68 107L67 106M106 106L107 107L106 106M113 106L114 107L113 106z"/>
<path style="fill:#2ba6c8; stroke:none;" d="M157 106L158 107L157 106z"/>
<path style="fill:#beb1a6; stroke:none;" d="M158 106L159 107L158 106M161.333 106.667L161.667 107.333L161.333 106.667M36 107L37 108L36 107M42 107L43 108L42 107M53.3333 107.667L53.6667 108.333L53.3333 107.667M105 107L106 108L105 107M114 107L115 108L114 107M33 108L34 109L33 108M37 108L38 109L37 108M46 108L47 109L46 108M62 108L63 109L62 108M66 108L67 109L66 108M104 108L105 109L104 108M108 108L106 111L108 108z"/>
<path style="fill:#fefefe; stroke:none;" d="M111 108C107.34 109.804 98.4391 122.286 104.588 125.824C111.162 129.606 111.877 110.993 111 108z"/>
<path style="fill:#beb1a6; stroke:none;" d="M153 108L154 109L153 108M56.3333 109.667L56.6667 110.333L56.3333 109.667z"/>
<path style="fill:#2ba6c8; stroke:none;" d="M155 109L156 110L155 109z"/>
<path style="fill:#beb1a6; stroke:none;" d="M163.333 109.667L163.667 110.333L163.333 109.667M34 110L35 111L34 110M38 110L39 111L38 110M43 110L44 111L43 110M52.3333 110.667L52.6667 111.333L52.3333 110.667M61 110L62 111L61 110M65 110L66 111L65 110M103 110L104 111L103 110M152.333 110.667L152.667 111.333L152.333 110.667M155 110L156 111L155 110M160 110L161 111L160 110M47 111L48 112L47 111z"/>
<path style="fill:#2ba6c8; stroke:none;" d="M160 111L161 112L160 111z"/>
<path style="fill:#beb1a6; stroke:none;" d="M35 112L36 113L35 112M39 112L40 113L39 112M44 112L42 117L42 118C45.3315 117.286 45.5915 114.762 44 112M55.3333 112.667L55.6667 113.333L55.3333 112.667M60 112L61 113L60 112M64 112L65 113L64 112z"/>
<path style="fill:#2ba6c8; stroke:none;" d="M102 112L103 113L102 112z"/>
<path style="fill:#beb1a6; stroke:none;" d="M105 112L106 113L105 112M118 112L120 114L118 112M124 113L124 114L128 114L124 113M142 112L143 113L142 112M143 116L149 114C146.173 112.364 144.7 113.327 143 116M150.667 112.333L151.333 112.667L150.667 112.333M155.667 112.333L156.333 112.667L155.667 112.333M167 113L167 114L171 113L167 113M177 112L178 113L177 112M184 112L183 114L184 112M192 112L193 113L192 112M48 113L48 118L52 118L52 113L51 113L51 117L49 117L48 113M59 113L60 114L59 113M63 113L64 114L63 113z"/>
<path style="fill:#374042; stroke:none;" d="M117 113L118 130L120 130L127 113L121 125L120 125C120 120.654 120.873 115.736 117 113z"/>
<path style="fill:#beb1a6; stroke:none;" d="M131 113L130 115L131 113z"/>
<path style="fill:#374042; stroke:none;" d="M134 125L129 128C130.963 124.188 136.31 121.653 136.573 117.055C136.972 110.098 129.414 115.832 128.148 119.005C125.493 125.66 131.098 134.183 134 125z"/>
<path style="fill:#beb1a6; stroke:none;" d="M136 113L137 114L136 113z"/>
<path style="fill:#374042; stroke:none;" d="M141 113L137 130L142 120L145 121L148 113L143 116L144 113L141 113z"/>
<path style="fill:#2ba6c8; stroke:none;" d="M149 113L150 114L149 113z"/>
<path style="fill:#beb1a6; stroke:none;" d="M157.333 113.667L157.667 114.333L157.333 113.667M162.333 113.667L162.667 114.333L162.333 113.667z"/>
<path style="fill:#374042; stroke:none;" d="M168.194 113.801C162.636 115.84 160.977 131.613 167.914 128.824C173.111 126.735 175.543 111.104 168.194 113.801z"/>
<path style="fill:#beb1a6; stroke:none;" d="M172 113L173 114L172 113z"/>
<path style="fill:#374042; stroke:none;" d="M176 113L177 130L183 121L184 121L184 130C190.095 126.833 191.987 119.176 194 113C189.512 114.313 188.136 121.762 187 126L186 126L186 113L179 126L178 126L178 113L176 113z"/>
<path style="fill:#2ba6c8; stroke:none;" d="M178 113L179 114L178 113z"/>
<path style="fill:#beb1a6; stroke:none;" d="M36 114L37 115L36 114M40 114L41 115L40 114M101 114L102 115L101 114M104.333 114.667L104.667 115.333L104.333 114.667z"/>
<path style="fill:#2ba6c8; stroke:none;" d="M119 114L120 115L119 114M124 114L125 115L124 114M147 114L148 115L147 114z"/>
<path style="fill:#beb1a6; stroke:none;" d="M159 114L160 115L159 114M193.333 114.667L193.667 115.333L193.333 114.667M30 115L30 116L32 118L33 118L30 115M37 115L38 116L37 115M41 115L42 116L41 115M58 115L59 116L58 115M62 115L63 116L62 115M66 116L66 117L78 125C75.023 120.774 71.462 115.919 66 116M133 115L134 118L135 118L133 115M140 115L141 116L140 115M150 115L151 116L150 115M154.667 115.333L155.333 115.667L154.667 115.333z"/>
<path style="fill:#2ba6c8; stroke:none;" d="M159 115L160 116L159 115z"/>
<path style="fill:#beb1a6; stroke:none;" d="M165 115L166 116L165 115M168 115L167 117L168 115z"/>
<path style="fill:#fefefe; stroke:none;" d="M169 115L166 127C170.002 124.345 170.81 119.322 169 115z"/>
<path style="fill:#beb1a6; stroke:none;" d="M173 115L173 120L174 120L173 115M186 115L186 126L187 126L186 115M190 115L191 116L190 115z"/>
<path style="fill:#e68b1c; stroke:none;" d="M21 127C26.4152 125.48 30.48 121.415 32 116C26.5848 117.52 22.52 121.585 21 127M66 117L78 127C75.7418 122.158 71.6407 116.916 66 117z"/>
<path style="fill:#beb1a6; stroke:none;" d="M111.333 116.667L111.667 117.333L111.333 116.667M114.333 116.667L114.667 117.333L114.333 116.667M123.333 116.667L123.667 117.333L123.333 116.667M126 116L127 117L126 116z"/>
<path style="fill:#fefefe; stroke:none;" d="M132 116L130 122L134 116L132 116z"/>
<path style="fill:#2ba6c8; stroke:none;" d="M140 116L141 117L140 116z"/>
<path style="fill:#beb1a6; stroke:none;" d="M170 116L170 121L171 121L170 116M182.333 116.667L182.667 117.333L182.333 116.667M38 117L39 118L38 117M55 117L55 118L58 118L55 117M61 117L62 118L61 117M100.333 117.667L100.667 118.333L100.333 117.667M103.333 117.667L103.667 118.333L103.333 117.667M128 117L129 118L128 117M131 117L132 118L131 117M145 117L146 118L145 117M153.333 117.667L153.667 118.333L153.333 117.667M161.333 117.667L161.667 118.333L161.333 117.667z"/>
<path style="fill:#2ba6c8; stroke:none;" d="M164 117L165 118L164 117z"/>
<path style="fill:#beb1a6; stroke:none;" d="M192.333 117.667L192.667 118.333L192.333 117.667M60 118L61 119L60 118M66 118L67 119L66 118z"/>
<path style="fill:#2ba6c8; stroke:none;" d="M125 118L126 119L125 118z"/>
<path style="fill:#beb1a6; stroke:none;" d="M139.333 118.667L139.667 119.333L139.333 118.667M150 118L151 119L150 118M158 118L159 119L158 118z"/>
<path style="fill:#2ba6c8; stroke:none;" d="M166 118L167 119L166 118z"/>
<path style="fill:#beb1a6; stroke:none;" d="M189 118L190 119L189 118M39 119L39 128L40 128L39 119M67 119L68 120L67 119M125 119L126 120L125 119M130 119L131 120L130 119M133 119L134 120L133 119M136 119L137 120L136 119M145.333 119.667L145.667 120.333L145.333 119.667M163 119L164 120L163 119M166 119L167 120L166 119M181 119L182 120L181 119z"/>
<path style="fill:#2ba6c8; stroke:none;" d="M189 119L190 120L189 119z"/>
<path style="fill:#beb1a6; stroke:none;" d="M68 120L69 121L68 120M110 120L111 121L110 120M113 120L114 121L113 120M122 120L123 121L122 120M127 120L128 121L127 120z"/>
<path style="fill:#2ba6c8; stroke:none;" d="M135 120L136 121L135 120M152 120L153 121L152 120M181 120L182 121L181 120z"/>
<path style="fill:#beb1a6; stroke:none;" d="M191 120L192 121L191 120M43 121L44 122L43 121z"/>
<path style="fill:#fefefe; stroke:none;" d="M44 121L44 122L56 123L56 121L44 121z"/>
<path style="fill:#beb1a6; stroke:none;" d="M56 121L53 123L53 124C55.348 123.706 56.951 123.507 56 121M69 121L70 122L69 121M124 121L125 122L124 121M131 121L132 122L131 121M149.333 121.667L149.667 122.333L149.333 121.667M152 121L153 122L152 121M157.333 121.667L157.667 122.333L157.333 121.667M160.333 121.667L160.667 122.333L160.333 121.667z"/>
<path style="fill:#2ba6c8; stroke:none;" d="M183 121L184 122L183 121z"/>
<path style="fill:#beb1a6; stroke:none;" d="M188 121L189 122L188 121M46 122L46 123L50 123L46 122M70 122L71 123L70 122M121 122L122 123L121 122z"/>
<path style="fill:#2ba6c8; stroke:none;" d="M129 122L130 123L129 122z"/>
<path style="fill:#beb1a6; stroke:none;" d="M130 122L131 123L130 122M138.333 122.667L138.667 123.333L138.333 122.667M141.333 122.667L141.667 123.333L141.333 122.667M165 122L165 127L166 127L165 122M178 122L178 126L179 126L178 122M180 122L181 123L180 122M183 122L183 129L184 129L183 122z"/>
<path style="fill:#2ba6c8; stroke:none;" d="M190 122L191 123L190 122z"/>
<path style="fill:#beb1a6; stroke:none;" d="M71 123L72 124L71 123z"/>
<path style="fill:#2ba6c8; stroke:none;" d="M109 123L110 124L109 123z"/>
<path style="fill:#beb1a6; stroke:none;" d="M112 123L113 124L112 123z"/>
<path style="fill:#2ba6c8; stroke:none;" d="M123 123L124 124L123 123z"/>
<path style="fill:#beb1a6; stroke:none;" d="M126 123L126 128L127 128L126 123M132 123L133 124L132 123M162 123L162 127L163 127L162 123M169 123L170 124L169 123M172 123L173 124L172 123M72 124L73 125L72 124M120 124L121 125L120 124M130 124L131 125L130 124z"/>
<path style="fill:#2ba6c8; stroke:none;" d="M151 124L152 125L151 124M159 124L160 125L159 124M189 124L190 125L189 124z"/>
<path style="fill:#beb1a6; stroke:none;" d="M20.3333 125.667L20.6667 126.333L20.3333 125.667M43 128L44 128L47 126C44.5878 124.645 43.5676 125.351 43 128M73 125L74 126L73 125M111 125L112 126L111 125z"/>
<path style="fill:#2ba6c8; stroke:none;" d="M119 125L120 126L119 125M122 125L123 126L122 125z"/>
<path style="fill:#beb1a6; stroke:none;" d="M132 125L133 126L132 125M148.333 125.667L148.667 126.333L148.333 125.667M151 125L152 126L151 125M156.333 125.667L156.667 126.333L156.333 125.667M159 125L160 126L159 125M168 125L169 126L168 125M171 125L172 126L171 125M181 125L182 126L181 125z"/>
<path style="fill:#fefefe; stroke:none;" d="M44 126L44 128L56 129L56 127L44 126z"/>
<path style="fill:#beb1a6; stroke:none;" d="M49 126L49 127L54 127L49 126M74 126L75 127L74 126M100 126L101 127L100 126M103 126L104 127L103 126M107 126L108 127L107 126M131 126L132 127L131 126M134 126L135 127L134 126M137.333 126.667L137.667 127.333L137.333 126.667M140.333 126.667L140.667 127.333L140.333 126.667M188 126L189 127L188 126M21.6667 127.333L22.3333 127.667L21.6667 127.333M56 127L52 129L52 130C54.4499 129.88 57.0951 129.905 56 127M75 127L75 128L78 128L75 127M104.667 127.333L105.333 127.667L104.667 127.333M121 127L122 128L121 127M129.667 127.333L130.333 127.667L129.667 127.333M166 127L167 128L166 127M170 127L171 128L170 127M180 127L181 128L180 127M45 128L45 129L50 129L45 128M101 128L102 129L101 128M150.333 128.667L150.667 129.333L150.333 128.667z"/>
<path style="fill:#2ba6c8; stroke:none;" d="M158 128L159 129L158 128z"/>
<path style="fill:#beb1a6; stroke:none;" d="M163 128L164 129L163 128z"/>
<path style="fill:#2ba6c8; stroke:none;" d="M169 128L170 129L169 128z"/>
<path style="fill:#beb1a6; stroke:none;" d="M179 128L180 129L179 128M187 128L188 129L187 128M59 129L59 132L60 132L59 129M102 129L103 130L102 129M107 129L108 130L107 129M117 129L118 130L117 129M127 129L128 130L127 129M131 129L132 130L131 129M139 129L140 130L139 129M158 129L159 130L158 129M164 129L165 130L164 129M168 129L169 130L168 129M176 129L177 130L176 129z"/>
<path style="fill:#2ba6c8; stroke:none;" d="M178 129L179 130L178 129z"/>
<path style="fill:#beb1a6; stroke:none;" d="M186 129L187 130L186 129M129 130L130 131L129 130M40 131L41 132L40 131M44 131L47 134L44 131z"/>
<path style="fill:#fefefe; stroke:none;" d="M46 132L46 133L53 134L46 132z"/>
<path style="fill:#beb1a6; stroke:none;" d="M49 132L49 133L53 133L49 132M41 133L42 134L41 133M53 133L54 134L53 133M58 133L59 134L58 133M42 134L43 135L42 134M48 134L48 135L52 135L48 134M57 134L58 135L57 134M43 135L44 136L43 135M56 135L57 136L56 135M44 136L45 137L44 136M55 136L56 137L55 136M46.6667 137.333L47.3333 137.667L46.6667 137.333M52.6667 137.333L53.3333 137.667L52.6667 137.333z"/>
</svg>
